<?xml version="1.0" encoding="UTF-8"?><svg id="Camada_1" xmlns="http://www.w3.org/2000/svg" viewBox="0 0 250 250"><defs><style>.cls-1{fill:#009640;}.cls-2{fill:#f39200;}.cls-3{fill:#fff;stroke:#1d1d1b;stroke-miterlimit:10;}</style></defs><rect class="cls-3" width="250" height="250"/><path class="cls-2" d="m63.66,215.91c5.17-2.71,9.14-2.99,12.97-3.75,23.98-4.75,47.68-10.5,69.47-23.77,21.77-13.27,39.01-32.14,52.12-56.1.85-1.56,1.49-3.28,2.14-4.97,4.03-10.49.47-18.12-9.35-20.36-8.02-1.83-15.97-.53-23.9.62-13.76,2-26.77,7.95-40.49,10.31-6.8,1.17-13.59,1.83-20.37.96-9.63-1.23-12.34-8.22-6.81-17.45,7.02-11.7,17.56-18.82,27.48-26.51,27.32-21.19,57.91-31.18,90.47-34.11,2.45-.22,4.81-.23,7.13.63,4.8,1.8,6.57,6.04,4.48,11.4-3.01,7.72-7.79,13.95-13.16,19.6-1.92,2.02-3.82,4.11-5.92,5.87-4.41,3.7-4.83,8.03-3.26,13.95,9.46,35.67,2.87,67.35-19.48,94.09-14.7,17.58-33.29,26.97-54.3,29.87-1.65.23-4.1,1.22-4.66-1.44-.46-2.21,1.97-2.46,3.31-3.26,3.14-1.87,6.33-3.66,9.29-6.4-24.66,8.89-49.65,13.42-77.16,10.83ZM202.75,49.89c-5.26-.4-9.19.35-13.11,1.19-1.57.33-3.97,1-2.86,3.15,2.61,5.09,5.49,10.42,9.94,13.45,3.65,2.48,6.17-2.15,8.58-4.45,3.05-2.91,8.56-5.57,7.03-10.65-1.46-4.86-7.05-2.18-9.58-2.68Z"/><path class="cls-1" d="m125.75,32.54c-6.35,3.58-12.7,7.16-19.05,10.74,26.45-8.43,53.03-13.52,80.46-9.93-10.73,2.65-21.55,4.45-32.33,6.51-37.38,7.15-69.31,25.6-94.07,59.21-4.53,6.15-8.39,13.02-11.07,20.56-2.88,8.1-.62,13.91,6.42,17.16,10.59,4.89,21.4,2.5,32.04.73,16.43-2.73,32.34-9.44,49.24-8.73,6.09.26,13.78-1.5,16.21,6.89,2.21,7.62-3.89,12.67-8.4,17.02-28.46,27.42-61.04,43.93-98.04,48.54-6.38.8-12.75,1.9-19.18,1.27-8.34-.82-10.65-5.94-6.14-14.07,5.25-9.47,12.68-16.7,19.92-23.97,3.18-3.19,4.22-5.67,2.82-10.56-12.76-44.63,6.14-92.99,43.59-112.84,11.83-6.27,24.08-9.6,36.93-10.34.21.6.43,1.21.64,1.81ZM49.72,194.2s0-.04,0-.06c3.19,0,6.39.07,9.58-.03,1.57-.05,3.47.06,4.32-1.74,1.03-2.18-1.04-3.11-1.92-4.5-1.76-2.77-3.61-5.49-5.28-8.33-2.09-3.55-4.22-4.9-7.92-2.24-3.97,2.86-7.27,6.42-10.44,10.26-1.07,1.29-2.51,2.62-1.58,4.75.73,1.65,2.25,1.83,3.65,1.86,3.19.08,6.39.02,9.58.02Z"/></svg>