<?xml version="1.0" encoding="UTF-8"?><svg id="Camada_1" xmlns="http://www.w3.org/2000/svg" viewBox="0 0 300 300"><defs><style>.cls-1{fill:#009640;}.cls-2{fill:#f39200;}</style></defs><path class="cls-2" d="m66.63,278.99c7.07-3.87,12.51-4.27,17.76-5.35,32.82-6.76,65.27-14.96,95.09-33.88,29.8-18.9,53.39-45.8,71.34-79.94,1.17-2.22,2.04-4.67,2.93-7.08,5.51-14.95.65-25.82-12.79-29.01-10.98-2.6-21.85-.75-32.72.89-18.84,2.85-36.64,11.34-55.42,14.69-9.31,1.66-18.6,2.6-27.88,1.37-13.18-1.75-16.89-11.71-9.32-24.87,9.6-16.68,24.04-26.81,37.62-37.78,37.39-30.2,79.26-44.43,123.83-48.6,3.35-.31,6.58-.33,9.75.9,6.57,2.56,9,8.6,6.13,16.24-4.12,11-10.67,19.88-18.02,27.93-2.63,2.88-5.24,5.86-8.11,8.37-6.03,5.27-6.62,11.44-4.47,19.88,12.95,50.83,3.94,95.98-26.66,134.07-20.12,25.06-45.57,38.44-74.32,42.56-2.26.32-5.62,1.74-6.38-2.06-.63-3.15,2.7-3.51,4.53-4.64,4.3-2.67,8.66-5.21,12.72-9.12-33.75,12.67-67.97,19.12-105.62,15.43ZM257.03,42.42c-7.2-.56-12.58.5-17.94,1.69-2.14.48-5.43,1.42-3.92,4.48,3.57,7.26,7.52,14.85,13.6,19.16,4.99,3.54,8.44-3.07,11.74-6.35,4.17-4.14,11.71-7.94,9.63-15.17-2-6.93-9.66-3.1-13.11-3.82Z"/><path class="cls-1" d="m151.63,17.7c-8.69,5.1-17.39,10.2-26.08,15.3,36.2-12.01,72.58-19.27,110.13-14.15-14.68,3.78-29.5,6.34-44.26,9.28-51.17,10.19-94.88,36.48-128.76,84.37-6.2,8.77-11.48,18.55-15.15,29.29-3.95,11.54-.84,19.82,8.79,24.46,14.49,6.97,29.29,3.56,43.86,1.04,22.49-3.89,44.27-13.46,67.4-12.44,8.34.37,18.86-2.14,22.19,9.81,3.02,10.85-5.32,18.06-11.5,24.25-38.95,39.08-83.55,62.6-134.19,69.17-8.74,1.13-17.45,2.7-26.25,1.81-11.42-1.16-14.58-8.47-8.41-20.04,7.19-13.49,17.36-23.79,27.27-34.16,4.35-4.55,5.77-8.08,3.86-15.05C23.06,127.03,48.94,58.12,100.2,29.84c16.19-8.93,32.96-13.68,50.55-14.73.29.86.59,1.72.88,2.58ZM47.56,248.05s0-.05,0-.08c4.37,0,8.74.1,13.11-.04,2.15-.07,4.75.08,5.92-2.48,1.42-3.11-1.42-4.44-2.63-6.41-2.42-3.95-4.94-7.82-7.23-11.87-2.87-5.06-5.77-6.98-10.84-3.19-5.44,4.07-9.96,9.15-14.29,14.61-1.46,1.84-3.44,3.74-2.16,6.77.99,2.35,3.08,2.6,5,2.65,4.37.11,8.74.03,13.11.03Z"/></svg>